<?xml version="1.0"?>
<svg xmlns="http://www.w3.org/2000/svg" width="100" height="100" viewBox="0 0 100 100">
  <path fill="#f57c00" d="M0 50 a 50 50 180 0 1 100 0 a 50 50 180 0 1 -100 0 z"/>
  <g pivotX="50" pivotY="50" rotation="10">
    <g transform="translate(-19,-5.5) scale(1.25, 1.25) ">
      <path fill="#004d40" d="M 47 8.75 c -12 6 -12 25 -12 38.25 c -12 22 8 34.5 10.5 35 c 16 5 34.5 -4 32.5 -16.5 c 0 -15 -18 -22 -22 -26.5 c -14.5 -15 -8.5 -29 -8 -30.75 z M 46 80 c 6 -2 6 -8 15 -10 c 3 -1 12 2 15 0 c -8 11 -25 12 -30 10 z M 48 65 a 1.5 1.5 180 0 1 3 0 a 1.5 1.5 180 0 1 -3 0 z M 60 61 a 1.5 1.5 180 0 1 3 0 a 1.5 1.5 180 0 1 -3 0 z"/>
      <g>
        <clipPath id="left-fin">
          <path d="M 17.5 43 h 16.5 v 20 h -16.5 v -11 l 5 2.5 l .25 -.5 l -5 -2.5 v-2 l 5.75 2.875 l .25 -.5 l -5.75 -2.875 v-2 l 6.5 3.25 l .25 -.5 l -6.5 -3.25 v-2 l 7.25 3.5 l .25 -.5 l -7.25 -3.5"/>
        </clipPath>
        <path clip-path="url(#left-fin)" fill="#004d40" d="M 33.7 47 c -5 -2 -8 -4 -11 -3.5 c -9 3 -3.5 16 0 17.5 c 2.5 1.5 5 1.5 7.4 1 c -.5 -8 1.8 -11 3.5 -15 z"/>
      </g>
      <g>
        <clipPath id="right-fin">
          <path d="M 56.5 28 h 7 v-3.5 l -2 10 l .625 .2 l 2 -10 h1.5 v.50 l -2 10 l .625 .2 l 2 -10 h1.5 v.5 l -2 10 l .625 .2 l 2 -10 h1.5 v.5 l -2 10 l .625 .2 l 2 -10 h 12 v22 h-29 v-20"/>
        </clipPath>
        <path clip-path="url(#right-fin)" fill="#004d40" d="M 57.25 38.5 c 2.25 2.1 7.6 5.2 12.5 9.05 c 0 0 7.6 -9 1.5 -15 c -4 -4.6 -13 -6.0 -14.15 -2.1 c -.5 2 -.5 5 .1 8 z"/>
      </g>
      <g>
        <clipPath id="tail">
          <path d="M 0 0 M49 7.8 v -6.7 h 16 v 0 l -15 7.5 l -.125 .375 l 15 -6.5 h-.75 v 1.9 l -14.5 6.0 l -.125 .375 l 14.5 -5.5 h-.25 v 1.9 l -14.5 5.0 l -.125 .375 l 14.5 -4.5 v 10 h -30 M 63.0 8.8z"/>
        </clipPath>
        <path clip-path="url(#tail)" fill="#004d40" d="M 49.0 7.8 c -1.3 3.3 -1.5 6.5 -1.5 6.8 l 14.5 -4.5 c -1.0 -5.25 -6.9 -5.75 -7 -5.25 l -6 3 z "/>
      </g>
    </g>
  </g>
</svg>
